<?xml version="1.0" standalone="no"?>
<!DOCTYPE svg PUBLIC "-//W3C//DTD SVG 20010904//EN"
 "http://www.w3.org/TR/2001/REC-SVG-20010904/DTD/svg10.dtd">
<svg version="1.0" xmlns="http://www.w3.org/2000/svg"
 width="128.000000pt" height="186.000000pt" viewBox="0 0 128.000000 186.000000"
 preserveAspectRatio="xMidYMid meet">

<g transform="translate(0.000000,186.000000) scale(0.100000,-0.100000)"
fill="#000000" stroke="none">
<path d="M0 1421 c0 -342 3 -440 13 -444 9 -4 9 -8 -2 -15 -11 -8 -9 -14 8
-31 11 -11 21 -26 21 -33 0 -6 -8 -1 -19 11 -19 21 -19 21 -17 -43 0 -35 3
-61 6 -57 3 4 22 15 44 25 29 13 41 15 50 6 12 -12 13 -18 21 -114 3 -42 12
-70 29 -95 19 -26 22 -37 13 -43 -9 -6 -8 -8 3 -8 8 1 24 7 34 15 11 8 26 15
33 15 14 0 28 -49 38 -132 10 -93 21 -75 24 40 1 58 5 110 8 115 13 21 37 -3
54 -53 l19 -55 -5 80 c-3 44 -8 94 -10 110 -4 23 0 18 18 -21 24 -50 49 -70
69 -57 17 9 100 4 114 -8 7 -6 15 -6 18 -1 3 5 -12 17 -34 27 -40 18 -50 30
-29 37 6 2 -5 16 -25 31 -36 28 -49 68 -26 82 6 4 8 10 6 14 -3 4 -1 24 5 44
11 40 54 73 104 79 24 2 30 -1 35 -22 5 -21 7 -22 13 -7 3 9 12 17 18 17 7 0
10 -3 6 -6 -7 -8 17 -34 31 -34 6 0 13 6 15 13 3 6 6 2 6 -10 1 -21 15 -28 43
-24 4 0 5 -6 2 -14 -4 -10 0 -15 13 -15 14 0 19 -7 18 -28 0 -15 4 -30 9 -33
5 -4 1 -17 -8 -30 -25 -36 -19 -45 10 -18 16 14 25 18 22 9 -2 -8 -20 -26 -39
-38 -19 -13 -33 -28 -31 -33 1 -6 -3 -9 -10 -8 -7 1 -26 -3 -41 -9 -25 -11
-31 -9 -45 8 -15 17 -18 17 -31 4 -11 -13 -10 -16 7 -21 13 -3 19 -10 15 -20
-3 -8 0 -55 7 -104 12 -86 14 -88 36 -83 19 5 26 1 35 -22 9 -25 12 -27 20
-12 7 13 2 29 -24 66 -40 58 -61 107 -54 124 2 7 4 17 3 22 -1 9 78 43 119 50
18 3 25 0 25 -11 0 -11 7 -14 25 -11 14 3 26 2 26 -1 1 -3 3 -18 5 -33 1 -15
7 -35 12 -44 8 -14 13 -7 26 34 20 59 29 68 46 47 6 -8 32 -17 57 -21 37 -5
50 -3 74 15 34 25 36 20 9 -24 -18 -29 -19 -40 -10 -101 5 -38 10 -75 10 -82
0 -9 5 -10 19 -3 10 6 21 8 24 4 4 -3 9 1 12 9 3 8 -8 40 -25 72 -30 59 -37
86 -21 86 5 0 11 14 15 30 4 23 11 30 28 30 19 0 20 -2 8 -10 -9 -6 -10 -10
-3 -10 6 0 15 5 18 10 4 6 11 7 17 4 8 -5 9 3 5 23 -5 27 -2 33 34 57 23 14
45 26 50 26 5 0 9 7 9 16 0 23 -20 55 -30 49 -5 -3 -5 9 1 27 5 18 14 35 19
36 6 2 10 175 10 488 l0 484 -640 0 -640 0 0 -439z m1136 352 c-7 -7 -26 7
-26 19 0 6 6 6 15 -2 9 -7 13 -15 11 -17z m-495 -23 c15 0 19 -7 19 -34 0 -19
-4 -38 -10 -41 -6 -4 -7 6 -4 24 5 23 2 32 -10 37 -29 11 -42 -11 -29 -47 10
-26 10 -29 -3 -19 -16 14 -19 70 -4 70 6 0 10 8 11 18 0 10 3 12 6 5 2 -7 13
-13 24 -13z m-359 -40 c-2 -22 -7 -40 -11 -40 -4 0 -5 16 -3 37 4 30 2 35 -12
30 -9 -4 -16 -2 -16 3 0 6 10 10 23 10 20 0 22 -4 19 -40z m73 0 c0 -52 -20
-52 -21 0 -1 24 3 40 10 40 6 0 11 -17 11 -40z m88 -5 c9 -25 12 -45 6 -45 -5
0 -9 9 -9 20 0 11 -5 20 -11 20 -5 0 -8 4 -4 9 3 5 1 12 -5 16 -12 8 -13 25
-1 25 5 0 16 -20 24 -45z m87 36 c-20 -6 -25 -13 -24 -39 2 -37 -1 -40 -16
-12 -16 30 4 60 38 59 l27 -1 -25 -7z m270 -1 c0 -5 -7 -7 -16 -3 -13 5 -15
-1 -12 -32 1 -21 -1 -40 -7 -42 -6 -1 -10 14 -10 34 0 25 -4 37 -12 36 -7 -2
-13 2 -13 7 0 6 16 10 35 10 19 0 35 -4 35 -10z m40 -9 c-13 -25 -2 -53 19
-49 11 2 16 14 16 35 0 29 1 30 16 17 34 -30 -11 -78 -56 -60 -18 7 -20 47 -3
64 17 17 20 15 8 -7z m114 7 c5 -10 7 -10 12 0 3 6 10 12 15 12 6 0 6 -8 -1
-19 -5 -11 -10 -29 -10 -40 0 -12 -4 -21 -10 -21 -5 0 -10 9 -10 20 0 11 -9
29 -20 40 -19 19 -19 20 -1 20 11 0 22 -6 25 -12z m-544 -31 c0 -7 -7 -22 -15
-33 -13 -17 -13 -16 -3 14 13 34 18 40 18 19z m140 -27 c-6 -11 -12 -20 -14
-20 -2 0 -2 9 1 20 3 11 9 20 15 20 5 0 4 -9 -2 -20z m166 -188 c9 -20 19 -56
22 -80 3 -29 8 -39 13 -30 7 10 9 10 9 1 0 -7 7 -13 15 -13 8 0 15 -5 15 -10
0 -13 -68 -3 -88 13 -23 18 -26 -3 -3 -27 21 -22 22 -28 11 -61 -7 -20 -10
-47 -7 -61 3 -20 0 -24 -19 -24 -26 0 -30 10 -13 27 7 7 3 9 -15 6 -32 -6 -33
3 -4 34 20 22 21 24 4 42 -10 11 -15 25 -11 31 3 6 1 9 -7 8 -7 -2 -12 3 -10
10 3 17 -16 103 -30 129 -13 27 1 50 35 55 35 6 65 -12 83 -50z m78 -32 c14
-5 26 -14 26 -19 0 -5 -13 -3 -30 5 -44 23 -41 32 4 14z m86 -49 c3 -13 20
-31 38 -40 42 -22 172 -150 172 -170 0 -12 -4 -11 -19 5 -51 51 -71 66 -71 53
-1 -9 -5 -8 -15 5 -8 10 -12 23 -9 27 4 7 -32 33 -48 34 -3 0 -10 3 -13 7 -4
4 -20 1 -36 -7 -32 -17 -51 -2 -21 16 17 10 18 17 10 41 -6 15 -14 28 -19 28
-4 0 -6 7 -2 15 8 22 26 13 33 -14z m-300 -25 c0 -3 -4 -8 -10 -11 -5 -3 -10
-1 -10 4 0 6 5 11 10 11 6 0 10 -2 10 -4z m37 -192 c-3 -3 -12 -4 -19 -1 -8 3
-5 6 6 6 11 1 17 -2 13 -5z m214 -74 c5 0 9 -7 9 -15 0 -8 -7 -15 -15 -15 -8
0 -15 5 -15 11 0 6 -6 9 -14 6 -9 -4 -16 3 -21 20 -6 25 -6 25 -27 7 l-21 -19
18 28 c14 22 15 30 5 45 -7 9 6 -2 29 -25 23 -24 47 -43 52 -43z m-127 35 c5
-22 4 -26 -4 -15 -5 8 -10 24 -10 34 0 26 6 18 14 -19z m-224 -40 c0 -3 -9
-14 -19 -24 -16 -16 -19 -30 -15 -66 4 -39 2 -44 -10 -33 -26 24 3 128 36 128
4 0 8 -2 8 -5z m259 -5 c4 0 7 -8 8 -18 1 -13 -6 -17 -30 -16 -18 0 -39 3 -47
6 -8 4 -22 9 -30 12 -8 3 3 5 25 4 29 -2 39 2 37 11 -2 9 3 11 13 7 9 -3 20
-6 24 -6z m-127 -28 c-12 -8 -72 -4 -72 4 0 2 19 4 43 4 25 0 37 -4 29 -8z
m208 -51 c0 -3 -27 -6 -60 -7 -66 0 -68 14 -3 26 34 6 63 -3 63 -19z m140 -54
c0 -36 -4 -46 -24 -55 -21 -10 -23 -8 -19 11 4 18 3 19 -6 7 -10 -13 -12 -13
-21 0 -7 11 -1 23 23 46 18 17 35 32 40 33 4 0 7 -19 7 -42z m-137 19 c4 -10
1 -13 -8 -9 -8 3 -12 9 -9 14 7 12 11 11 17 -5z m-319 -2 c23 -9 20 -23 -4
-21 -11 1 -20 7 -20 14 0 15 2 15 24 7z m281 -3 c-15 -14 -95 -24 -95 -13 0
10 28 17 80 21 14 0 20 -3 15 -8z m-478 -37 c-3 -3 -12 -4 -19 -1 -8 3 -5 6 6
6 11 1 17 -2 13 -5z m716 -17 c16 12 97 17 97 6 0 -15 -63 -34 -71 -22 -4 7
-11 9 -17 5 -6 -4 -5 -21 5 -48 11 -34 12 -46 2 -65 -7 -13 -16 -23 -21 -23
-11 0 -10 7 3 28 7 12 8 28 1 52 -9 32 -10 33 -11 8 -1 -27 -21 -51 -21 -26 0
10 -2 10 -9 -1 -16 -25 -41 -5 -40 31 1 18 3 25 6 15 6 -22 23 -12 23 14 0 10
5 19 11 19 5 0 7 6 3 13 -5 8 -2 8 9 -2 11 -9 21 -10 30 -4z m-781 -19 c-7 -7
-12 -8 -12 -2 0 14 12 26 19 19 2 -3 -1 -11 -7 -17z m685 -64 c-7 -7 -77 67
-77 81 0 5 19 -9 41 -33 23 -23 39 -45 36 -48z m306 -65 c5 -20 5 -20 -13 -4
-11 10 -17 22 -14 26 8 13 21 3 27 -22z m-798 8 c10 -8 15 -19 11 -25 -10 -17
-26 -15 -26 3 0 8 -4 15 -10 15 -5 0 -10 5 -10 10 0 14 13 13 35 -3z m745
-116 c0 -6 -4 -13 -10 -16 -5 -3 -10 1 -10 9 0 9 5 16 10 16 6 0 10 -4 10 -9z"/>
<path d="M656 1431 c-4 -5 -3 -12 1 -14 14 -8 63 -5 63 4 0 5 -6 9 -14 9 -8 0
-21 3 -29 6 -8 3 -18 1 -21 -5z"/>
<path d="M1260 720 c0 -11 -9 -34 -20 -52 -12 -20 -20 -51 -20 -77 0 -45 -2
-47 -52 -26 -28 11 -22 -6 22 -64 40 -53 51 -98 31 -130 -11 -18 -100 -40
-134 -34 -30 6 -41 18 -42 45 0 10 -4 18 -10 17 -5 0 -9 -11 -8 -24 2 -27 -30
-44 -51 -26 -9 7 -16 7 -24 -1 -6 -6 -18 -8 -26 -5 -12 5 -16 22 -16 74 0 60
-1 65 -14 47 -14 -19 -15 -19 -23 1 -6 14 -9 0 -13 -50 -4 -62 -7 -70 -25 -70
-19 0 -20 8 -25 145 -4 117 -7 137 -14 103 -8 -39 -12 -43 -37 -43 -16 0 -29
-3 -29 -6 0 -3 14 -22 30 -43 17 -21 33 -54 37 -74 4 -29 1 -40 -20 -61 -32
-32 -60 -33 -87 -4 l-20 22 0 -22 c0 -27 -38 -31 -46 -4 -18 56 -21 58 -31 23
-10 -37 -20 -46 -41 -32 -10 6 -11 21 -3 72 6 35 11 83 11 107 0 24 4 52 10
62 9 16 7 17 -15 6 -24 -11 -24 -15 -27 -131 -3 -112 -4 -120 -23 -120 -19 0
-20 8 -25 119 -5 112 -6 119 -27 127 l-23 8 0 -125 c0 -123 0 -125 -22 -122
-16 2 -25 16 -37 53 l-16 50 -3 -50 c-2 -27 -7 -52 -12 -55 -6 -3 -47 -5 -92
-5 l-83 1 1 45 c1 24 5 68 9 97 8 52 8 52 -19 52 -28 0 -35 -14 -11 -24 22 -8
18 -43 -5 -49 -17 -4 -20 -14 -20 -60 0 -58 -7 -71 -34 -61 -13 5 -16 23 -16
101 0 52 -5 114 -11 139 -9 34 -9 51 0 71 10 22 10 28 -3 35 -8 5 -21 15 -29
23 -8 8 -17 11 -21 8 -3 -4 -6 -168 -6 -365 l0 -358 640 0 640 0 0 370 c-1
228 -5 370 -10 370 -6 0 -10 -9 -10 -20z m-1103 -492 c-3 -8 -6 -5 -6 6 -1 11
2 17 5 13 3 -3 4 -12 1 -19z m31 -3 c-3 -3 -9 2 -12 12 -6 14 -5 15 5 6 7 -7
10 -15 7 -18z m32 10 c7 -9 8 -15 2 -15 -5 0 -12 7 -16 15 -3 8 -4 15 -2 15 2
0 9 -7 16 -15z m70 -6 c0 -5 -4 -9 -10 -9 -5 0 -10 7 -10 16 0 8 5 12 10 9 6
-3 10 -10 10 -16z m17 -11 c-3 -7 -5 -2 -5 12 0 14 2 19 5 13 2 -7 2 -19 0
-25z m30 10 c-3 -8 -6 -5 -6 6 -1 11 2 17 5 13 3 -3 4 -12 1 -19z m70 6 c0 -7
-4 -11 -8 -8 -4 2 -10 -2 -12 -8 -3 -7 -6 -4 -6 8 -1 11 5 21 12 21 8 0 14 -6
14 -13z m70 -6 c-3 -8 -6 -5 -6 6 -1 11 2 17 5 13 3 -3 4 -12 1 -19z m28 13
c3 -5 1 -12 -5 -16 -5 -3 -10 1 -10 9 0 18 6 21 15 7z m41 -18 c-7 -7 -26 7
-26 19 0 6 6 6 15 -2 9 -7 13 -15 11 -17z m61 11 c0 -7 -6 -10 -14 -7 -17 7
-17 20 0 20 8 0 14 -6 14 -13z m20 -6 c-3 -8 -6 -5 -6 6 -1 11 2 17 5 13 3 -3
4 -12 1 -19z m25 -10 c-8 -8 -9 -4 -5 13 4 13 8 18 11 10 2 -7 -1 -18 -6 -23z
m68 16 c3 11 9 15 13 10 8 -14 -9 -38 -22 -30 -6 4 -10 15 -10 24 1 13 3 12 7
-3 5 -20 5 -20 12 -1z m105 7 c3 -5 1 -12 -5 -16 -5 -3 -10 1 -10 9 0 18 6 21
15 7z m32 -13 c-3 -8 -6 -5 -6 6 -1 11 2 17 5 13 3 -3 4 -12 1 -19z m50 0 c-3
-8 -6 -5 -6 6 -1 11 2 17 5 13 3 -3 4 -12 1 -19z m53 15 c0 -5 -5 -15 -10 -23
-7 -12 -9 -10 -7 8 1 19 17 33 17 15z m17 -15 c-3 -8 -6 -5 -6 6 -1 11 2 17 5
13 3 -3 4 -12 1 -19z m60 0 c-3 -8 -6 -5 -6 6 -1 11 2 17 5 13 3 -3 4 -12 1
-19z m57 6 c3 -8 2 -12 -4 -9 -6 3 -10 10 -10 16 0 14 7 11 14 -7z m46 12 c0
-2 -8 -10 -17 -17 -16 -13 -17 -12 -4 4 13 16 21 21 21 13z m-535 -128 c-4
-13 -10 -26 -14 -30 -9 -10 -54 14 -58 32 -3 9 -1 11 4 5 13 -16 40 -16 47 0
9 25 28 18 21 -7z"/>
<path d="M75 720 c-3 -5 1 -10 10 -10 9 0 13 5 10 10 -3 6 -8 10 -10 10 -2 0
-7 -4 -10 -10z"/>
<path d="M540 711 c0 -5 7 -12 16 -15 14 -5 15 -4 4 9 -14 17 -20 19 -20 6z"/>
<path d="M718 703 c-29 -34 -30 -48 -2 -21 15 15 26 30 23 33 -3 3 -13 -3 -21
-12z"/>
<path d="M970 606 c0 -9 5 -16 10 -16 6 0 10 4 10 9 0 6 -4 13 -10 16 -5 3
-10 -1 -10 -9z"/>
<path d="M969 568 c0 -1 -2 -38 -5 -80 -4 -91 11 -114 21 -31 11 90 11 105 -2
110 -7 3 -13 3 -14 1z"/>
<path d="M1100 350 c0 -5 5 -10 10 -10 6 0 10 5 10 10 0 6 -4 10 -10 10 -5 0
-10 -4 -10 -10z"/>
</g>
</svg>
